<?xml version="1.0" encoding="utf-8"?>
<!-- Generator: Adobe Illustrator 25.2.1, SVG Export Plug-In . SVG Version: 6.00 Build 0)  -->
<svg version="1.1" id="レイヤー_2" xmlns="http://www.w3.org/2000/svg" xmlns:xlink="http://www.w3.org/1999/xlink" x="0px"
	 y="0px" viewBox="0 0 926.4 79.2" style="enable-background:new 0 0 926.4 79.2;" xml:space="preserve">
<style type="text/css">
	.st0{enable-background:new    ;}
	.st1{fill:#EAA4A4;}
	.st2{fill:#DFC692;}
	.st3{fill:#C9DFB0;}
	.st4{fill:#ADD6D2;}
	.st5{fill:#A796DF;}
	.st6{fill:#FADEDD;}
</style>
<g class="st0">
	<path class="st1" d="M1.9,40.2c0-14.3,11.6-25.9,25.9-25.9c14.4,0,26,11.6,26,25.9s-11.6,25.9-26,25.9C13.5,66.2,1.9,54.6,1.9,40.2
		z M38.3,46.2c0-4.4-2.7-7.2-7.5-8.5L28.2,37c-1.9-0.6-2.7-1.3-2.7-2.6c0-1.4,1.1-2.2,2.8-2.2c1.4,0,2.8,0.7,4.6,2.6l5.4-3.6
		c-2.8-3.8-6.2-5.6-10.6-5.6c-5.5,0-9.8,3.7-9.8,8.6c0,4.4,2.7,7.3,7.8,8.7l2.2,0.6c2.1,0.6,3,1.4,3,2.7c-0.1,1.3-1.1,2.1-2.8,2.1
		c-2,0-4-1.1-5.4-2.8l-5.4,3.9c2.6,3.3,6.3,5.3,10.8,5.3C33.8,54.9,38.3,51.3,38.3,46.2z"/>
</g>
<g class="st0">
	<path class="st2" d="M63.7,40.2c0-14.3,11.6-25.9,25.9-25.9c14.4,0,26,11.6,26,25.9s-11.6,25.9-26,25.9
		C75.3,66.2,63.7,54.6,63.7,40.2z M82.5,49.8h14.4l3,5.2l7.1-2.9L89.7,24.8L72.4,52.1l7.3,3L82.5,49.8z M89.6,37.7l3.8,6.2h-7.6
		L89.6,37.7z"/>
</g>
<g class="st0">
	<path class="st3" d="M125.4,40.2c0-14.3,11.6-25.9,25.9-25.9c14.4,0,26,11.6,26,25.9s-11.6,25.9-26,25.9
		C137,66.2,125.4,54.6,125.4,40.2z M143.3,54.5V41.8c0-1.1-0.1-2.2-0.1-2.2l8.3,7.1l8.2-7c0,0-0.1,0.9-0.1,2v12.8h7.5V24.3l-13,11
		c-1.1,0.9-2.6,2.3-2.6,2.3s-1.4-1.4-2.6-2.3l-13.2-11v30.2H143.3z"/>
</g>
<g class="st0">
	<path class="st4" d="M187.2,40.2c0-14.3,11.6-25.9,25.9-25.9c14.4,0,26,11.6,26,25.9s-11.6,25.9-26,25.9
		C198.8,66.2,187.2,54.6,187.2,40.2z M212.2,54.5V45h2.7c6.9,0,10.2-4.1,10.2-9.5c0-5-3-9.4-10.2-9.4h-10.3v28.4H212.2z M212.2,33
		h2.4c2,0,2.7,1.3,2.7,2.6c0,1.4-0.7,2.7-2.7,2.7h-2.4V33z"/>
</g>
<g class="st0">
	<path class="st5" d="M248.9,40.2c0-14.3,11.6-25.9,25.9-25.9c14.4,0,26,11.6,26,25.9s-11.6,25.9-26,25.9
		C260.5,66.2,248.9,54.6,248.9,40.2z M284.5,54.5v-7h-10.2l0.1-21.4h-7.7v28.3H284.5z"/>
</g>
<g class="st0">
	<path class="st1" d="M310.7,40.2c0-14.3,11.6-25.9,25.9-25.9c14.4,0,26,11.6,26,25.9s-11.6,25.9-26,25.9
		C322.3,66.2,310.7,54.6,310.7,40.2z M345.8,54.5v-7h-10.7v-4h10l-0.1-6.4h-9.9V33h10.7v-6.9h-18.3v28.3H345.8z"/>
</g>
<g class="st0">
	<path class="st1" d="M434.2,40.2c0-14.3,11.6-25.9,25.9-25.9c14.4,0,26,11.6,26,25.9s-11.6,25.9-26,25.9
		C445.8,66.2,434.2,54.6,434.2,40.2z M469.8,54.5v-7h-10.2l0.1-21.4H452v28.3H469.8z"/>
</g>
<g class="st0">
	<path class="st2" d="M496,40.2c0-14.3,11.6-25.9,25.9-25.9c14.4,0,26,11.6,26,25.9s-11.6,25.9-26,25.9
		C507.6,66.2,496,54.6,496,40.2z M538.3,40.3c0-7.9-6.4-14.6-16.3-14.6c-9.8,0-16.3,6.6-16.3,14.5c0,8.1,6.4,14.7,16.3,14.7
		S538.3,48.3,538.3,40.3z M513.5,40.2c0-4,3-7.4,8.5-7.4c5.5,0,8.5,3.4,8.5,7.5c0,4.2-3,7.5-8.5,7.5
		C516.5,47.8,513.5,44.5,513.5,40.2z"/>
</g>
<g class="st0">
	<path class="st3" d="M557.7,40.2c0-14.3,11.6-25.9,25.9-25.9c14.4,0,26,11.6,26,25.9s-11.6,25.9-26,25.9
		C569.3,66.2,557.7,54.6,557.7,40.2z M597.6,48.6L597.6,37h-15l-0.1,6.2h7.6v3.1c-1.8,1.1-3.8,1.6-5.8,1.6c-5,0-8.4-3.4-8.4-7.8
		c0-4.4,3.7-7.8,8.4-7.8c2.4,0,4.6,0.8,6.8,2.5l5-4.6c-3.9-3.2-8-4.5-11.8-4.5c-9.3,0-16.1,6.1-16.1,14.3c0,8.4,6.8,14.5,16.1,14.5
		C588.8,54.5,594,52.4,597.6,48.6z"/>
</g>
<g class="st0">
	<path class="st4" d="M619.5,40.2c0-14.3,11.6-25.9,25.9-25.9c14.4,0,26,11.6,26,25.9s-11.6,25.9-26,25.9
		C631.1,66.2,619.5,54.6,619.5,40.2z M661.8,40.3c0-7.9-6.4-14.6-16.3-14.6c-9.8,0-16.3,6.6-16.3,14.5c0,8.1,6.4,14.7,16.3,14.7
		S661.8,48.3,661.8,40.3z M637,40.2c0-4,3-7.4,8.5-7.4c5.5,0,8.5,3.4,8.5,7.5c0,4.2-3,7.5-8.5,7.5C640,47.8,637,44.5,637,40.2z"/>
</g>
<g class="st0">
	<path class="st5" d="M681.3,40.2c0-14.3,11.6-25.9,25.9-25.9c14.4,0,26,11.6,26,25.9s-11.6,25.9-26,25.9
		C692.9,66.2,681.3,54.6,681.3,40.2z M699.2,54.5V41.8c0-1.1-0.1-2.2-0.1-2.2l8.3,7.1l8.2-7c0,0-0.1,0.9-0.1,2v12.8h7.5V24.3l-13,11
		c-1.1,0.9-2.6,2.3-2.6,2.3s-1.4-1.4-2.6-2.3l-13.2-11v30.2H699.2z"/>
</g>
<g class="st0">
	<path class="st1" d="M743,40.2c0-14.3,11.6-25.9,25.9-25.9c14.4,0,26,11.6,26,25.9s-11.6,25.9-26,25.9
		C754.6,66.2,743,54.6,743,40.2z M761.8,49.8h14.4l3,5.2l7.1-2.9L769,24.8l-17.4,27.3l7.3,3L761.8,49.8z M768.9,37.7l3.8,6.2h-7.6
		L768.9,37.7z"/>
</g>
<g class="st0">
	<path class="st2" d="M804.8,40.2c0-14.3,11.6-25.9,25.9-25.9c14.4,0,26,11.6,26,25.9s-11.6,25.9-26,25.9
		C816.4,66.2,804.8,54.6,804.8,40.2z M845.1,52.1l-7.2-8.6c2.6-1.6,4-4.3,4-7.9c0-5.9-4.2-9.4-11.2-9.4h-10.2v28.4h7.6V45h2.7
		l7.4,10L845.1,52.1z M828,32.8h3.3c1.8,0,2.7,1,2.7,2.7c0,1.8-1,2.6-2.7,2.6H828V32.8z"/>
</g>
<g class="st0">
	<path class="st3" d="M866.5,40.2c0-14.3,11.6-25.9,25.9-25.9c14.4,0,26,11.6,26,25.9s-11.6,25.9-26,25.9
		C878.1,66.2,866.5,54.6,866.5,40.2z M908.7,51.3l-12-13.6l9.4-8.3l-6.2-4.2L890,35l-1.9,2V26.2h-7.6v28.2h7.6v-8.8l3.5-3.3
		L902.2,55L908.7,51.3z"/>
</g>
<g>
	<circle class="st6" cx="398.2" cy="39.6" r="14"/>
	<circle class="st3" cx="380.2" cy="21.6" r="14"/>
	<circle class="st4" cx="416.2" cy="21.6" r="14"/>
	<circle class="st5" cx="416.2" cy="57.6" r="14"/>
	<circle class="st2" cx="380.2" cy="57.6" r="14"/>
</g>
</svg>
